<svg id="svg" version="1.1" xmlns="http://www.w3.org/2000/svg" xmlns:xlink="http://www.w3.org/1999/xlink" width="400" height="400" viewBox="0, 0, 400,400"><g id="svgg"><path id="path0" d="M283.000 61.034 C 279.283 61.258,271.818 62.480,268.000 63.489 C 266.790 63.808,265.163 64.226,264.384 64.418 C 260.195 65.448,250.172 69.943,246.634 72.377 C 245.656 73.049,244.663 73.600,244.428 73.600 C 244.193 73.600,244.000 73.741,244.000 73.914 C 244.000 74.086,243.505 74.521,242.900 74.880 C 239.977 76.614,232.528 83.845,229.587 87.805 C 227.292 90.893,226.000 92.782,226.000 93.046 C 226.000 93.161,225.493 94.008,224.874 94.928 C 221.964 99.249,218.370 108.575,216.599 116.400 C 214.329 126.431,214.272 127.332,214.028 157.200 L 213.800 185.000 187.900 185.103 L 162.000 185.206 162.000 215.200 L 162.000 245.194 187.900 245.297 L 213.800 245.400 213.901 322.700 L 214.002 400.000 245.001 400.000 L 276.000 400.000 276.000 322.600 L 276.000 245.200 301.945 245.200 L 327.891 245.200 328.328 242.900 C 328.568 241.635,328.875 239.610,329.010 238.400 C 329.271 236.063,329.738 232.369,330.412 227.300 C 330.639 225.595,330.994 222.850,331.200 221.200 C 331.639 217.692,332.172 213.519,332.772 208.900 C 333.201 205.593,333.737 201.437,334.408 196.200 C 334.606 194.660,334.949 192.050,335.172 190.400 C 335.394 188.750,335.581 186.906,335.588 186.303 L 335.600 185.205 305.900 185.103 L 276.200 185.000 276.200 161.200 C 276.200 144.237,276.334 136.940,276.667 135.800 C 276.924 134.920,277.367 133.390,277.651 132.400 C 279.612 125.571,284.611 120.630,291.800 118.414 C 297.107 116.778,302.524 116.400,320.688 116.400 L 337.606 116.400 337.503 89.707 L 337.400 63.014 332.000 62.540 C 319.854 61.473,313.919 61.196,300.000 61.046 C 291.970 60.960,284.320 60.954,283.000 61.034 " stroke="none" fill="#fbfbfb" fill-rule="evenodd"></path><path id="path1" d="M14.900 0.288 C 14.185 0.378,13.600 0.619,13.600 0.825 C 13.600 1.031,13.195 1.201,12.700 1.202 C 12.205 1.203,10.851 1.923,9.692 2.802 C 8.532 3.681,7.491 4.400,7.379 4.400 C 6.396 4.400,1.200 11.418,1.200 12.745 C 1.200 13.178,0.975 13.608,0.700 13.700 C -0.036 13.945,-0.036 386.055,0.700 386.300 C 0.975 386.392,1.200 386.902,1.200 387.433 C 1.200 387.965,1.336 388.400,1.502 388.400 C 1.669 388.400,2.061 388.985,2.373 389.700 C 2.686 390.415,3.270 391.235,3.671 391.523 C 4.072 391.810,4.400 392.221,4.400 392.436 C 4.400 392.834,7.004 395.600,7.379 395.600 C 7.491 395.600,8.532 396.319,9.692 397.198 C 10.851 398.077,12.190 398.797,12.667 398.798 C 13.143 398.799,13.608 399.025,13.700 399.300 C 13.833 399.698,34.230 399.821,113.533 399.905 L 213.200 400.009 213.200 322.805 L 213.200 245.600 187.400 245.600 L 161.600 245.600 161.600 215.003 L 161.600 184.406 187.300 184.303 L 213.000 184.200 213.247 158.000 C 213.483 133.013,213.715 127.492,214.780 121.600 C 215.854 115.650,217.907 108.133,219.448 104.500 C 219.752 103.785,220.287 102.525,220.639 101.700 C 220.990 100.875,221.742 99.300,222.310 98.200 C 222.877 97.100,223.535 95.796,223.771 95.303 C 224.007 94.810,224.335 94.405,224.500 94.403 C 224.665 94.401,224.800 94.210,224.800 93.978 C 224.800 91.939,234.119 81.030,239.800 76.419 C 246.352 71.100,256.186 65.913,263.400 63.968 C 264.060 63.791,265.320 63.441,266.200 63.192 C 269.617 62.226,273.701 61.470,279.600 60.711 C 288.389 59.582,323.970 60.576,336.000 62.287 L 338.200 62.600 338.200 89.800 L 338.200 117.000 318.400 117.239 C 296.609 117.502,294.359 117.732,288.979 120.248 C 285.492 121.878,281.200 125.312,281.200 126.471 C 281.200 126.621,280.975 126.981,280.700 127.271 C 280.425 127.562,279.954 128.340,279.653 129.000 C 279.353 129.660,278.948 130.513,278.753 130.895 C 278.559 131.277,278.400 131.916,278.400 132.315 C 278.400 132.714,278.238 133.211,278.041 133.420 C 277.249 134.258,277.085 138.354,276.939 160.897 L 276.787 184.395 306.494 184.497 L 336.200 184.600 336.094 187.000 C 335.997 189.178,335.127 196.634,333.994 205.000 C 333.755 206.760,333.384 209.640,333.169 211.400 C 332.676 215.426,332.185 219.249,331.600 223.600 C 331.349 225.470,330.969 228.350,330.756 230.000 C 330.544 231.650,330.194 234.350,329.979 236.000 C 329.764 237.650,329.481 240.260,329.350 241.800 C 329.218 243.340,328.929 244.825,328.706 245.100 C 328.391 245.491,322.669 245.600,302.551 245.600 L 276.800 245.600 276.800 322.808 L 276.800 400.017 331.467 399.908 C 374.767 399.823,386.168 399.696,386.300 399.300 C 386.392 399.025,386.902 398.800,387.433 398.800 C 387.965 398.800,388.400 398.664,388.400 398.498 C 388.400 398.331,388.972 397.942,389.672 397.632 C 391.071 397.013,391.730 396.515,394.044 394.331 C 394.900 393.524,395.600 392.670,395.600 392.435 C 395.600 392.199,395.960 391.782,396.400 391.507 C 396.840 391.232,397.204 390.826,397.209 390.604 C 397.214 390.382,397.570 389.750,398.000 389.200 C 398.430 388.650,398.786 387.810,398.791 387.333 C 398.796 386.857,399.025 386.392,399.300 386.300 C 400.036 386.055,400.036 13.945,399.300 13.700 C 399.025 13.608,398.799 13.143,398.798 12.667 C 398.797 12.190,398.077 10.851,397.198 9.692 C 396.319 8.532,395.600 7.483,395.600 7.361 C 395.600 6.908,391.019 2.807,390.495 2.791 C 390.333 2.786,389.750 2.430,389.200 2.000 C 388.650 1.570,387.810 1.214,387.333 1.209 C 386.857 1.204,386.392 0.975,386.300 0.700 C 386.141 0.224,18.667 -0.183,14.900 0.288 " stroke="none" fill="#4464b4" fill-rule="evenodd"></path><path id="path2" d="M290.123 60.699 C 292.720 60.769,296.860 60.768,299.323 60.698 C 301.785 60.628,299.660 60.571,294.600 60.572 C 289.540 60.572,287.525 60.629,290.123 60.699 M281.091 61.089 C 281.801 61.177,283.061 61.179,283.891 61.092 C 284.721 61.005,284.140 60.933,282.600 60.931 C 281.060 60.929,280.381 61.000,281.091 61.089 M306.482 61.096 C 307.958 61.173,310.478 61.173,312.082 61.097 C 313.687 61.021,312.480 60.958,309.400 60.958 C 306.320 60.957,305.007 61.019,306.482 61.096 M275.800 61.600 L 274.200 61.886 275.600 61.903 C 276.370 61.913,277.450 61.776,278.000 61.600 C 279.285 61.188,278.099 61.188,275.800 61.600 M318.100 61.487 C 318.705 61.578,319.695 61.578,320.300 61.487 C 320.905 61.395,320.410 61.320,319.200 61.320 C 317.990 61.320,317.495 61.395,318.100 61.487 M323.111 61.893 C 324.051 61.978,325.491 61.977,326.311 61.891 C 327.130 61.805,326.360 61.736,324.600 61.737 C 322.840 61.739,322.170 61.809,323.111 61.893 M329.700 62.276 C 330.085 62.376,330.715 62.376,331.100 62.276 C 331.485 62.175,331.170 62.093,330.400 62.093 C 329.630 62.093,329.315 62.175,329.700 62.276 M333.700 62.687 C 334.305 62.778,335.295 62.778,335.900 62.687 C 336.505 62.595,336.010 62.520,334.800 62.520 C 333.590 62.520,333.095 62.595,333.700 62.687 M337.506 89.616 L 337.611 116.392 320.006 116.502 L 302.400 116.613 320.100 116.606 L 337.800 116.600 337.903 90.023 C 337.959 75.405,337.869 63.309,337.703 63.143 C 337.536 62.976,337.448 74.889,337.506 89.616 M264.800 64.000 C 263.976 64.264,263.941 64.326,264.600 64.354 C 265.040 64.373,265.670 64.213,266.000 64.000 C 266.701 63.547,266.214 63.547,264.800 64.000 M258.897 65.903 C 257.521 66.467,256.463 66.996,256.546 67.080 C 256.630 67.163,258.026 66.694,259.649 66.036 C 261.272 65.379,262.330 64.850,262.000 64.859 C 261.670 64.869,260.274 65.339,258.897 65.903 M242.400 74.835 L 241.000 76.048 242.495 75.124 C 243.317 74.616,243.992 74.065,243.995 73.900 C 244.002 73.464,243.938 73.502,242.400 74.835 M236.904 79.400 C 235.127 81.050,232.908 83.345,231.972 84.500 C 231.036 85.655,231.671 85.107,233.383 83.283 C 235.095 81.458,237.481 79.163,238.685 78.183 C 239.888 77.202,240.707 76.400,240.503 76.400 C 240.300 76.400,238.680 77.750,236.904 79.400 M228.575 88.668 C 227.959 89.476,227.659 90.011,227.909 89.856 C 228.421 89.540,230.153 87.200,229.875 87.200 C 229.776 87.200,229.191 87.861,228.575 88.668 M225.053 94.100 L 224.333 95.400 225.158 94.400 C 225.889 93.513,226.214 92.800,225.886 92.800 C 225.824 92.800,225.449 93.385,225.053 94.100 M215.856 117.684 C 215.721 118.188,215.627 118.960,215.646 119.400 C 215.665 119.840,215.845 119.498,216.046 118.640 C 216.436 116.978,216.270 116.140,215.856 117.684 M299.500 117.082 C 299.995 117.178,300.805 117.178,301.300 117.082 C 301.795 116.987,301.390 116.909,300.400 116.909 C 299.410 116.909,299.005 116.987,299.500 117.082 M294.800 117.600 C 294.008 117.854,293.967 117.920,294.600 117.920 C 295.040 117.920,295.850 117.776,296.400 117.600 C 297.192 117.346,297.233 117.280,296.600 117.280 C 296.160 117.280,295.350 117.424,294.800 117.600 M288.058 119.846 C 286.903 120.421,286.017 120.950,286.088 121.022 C 286.160 121.093,287.294 120.626,288.609 119.985 C 289.924 119.343,290.810 118.814,290.579 118.809 C 290.347 118.804,289.212 119.271,288.058 119.846 M215.069 121.956 C 214.921 122.695,214.820 123.683,214.844 124.150 C 214.868 124.618,215.047 124.190,215.242 123.200 C 215.437 122.210,215.538 121.223,215.467 121.006 C 215.396 120.790,215.217 121.217,215.069 121.956 M284.000 122.449 C 282.606 123.671,282.605 123.672,283.888 122.819 C 284.596 122.348,285.282 121.791,285.412 121.581 C 285.797 120.957,285.477 121.154,284.000 122.449 M214.137 131.800 C 214.139 133.560,214.209 134.230,214.293 133.289 C 214.378 132.349,214.377 130.909,214.291 130.089 C 214.205 129.270,214.136 130.040,214.137 131.800 M276.649 135.815 C 276.512 136.173,276.423 137.036,276.450 137.733 C 276.492 138.787,276.550 138.698,276.799 137.200 C 277.117 135.286,277.059 134.748,276.649 135.815 M213.598 160.600 L 213.400 184.600 187.600 184.804 L 161.800 185.009 187.713 185.104 C 208.145 185.180,213.666 185.094,213.816 184.700 C 213.922 184.425,213.960 173.490,213.902 160.400 L 213.797 136.600 213.598 160.600 M276.193 162.800 L 276.200 185.000 305.876 185.103 L 335.552 185.205 335.718 186.606 L 335.884 188.007 335.842 186.503 L 335.800 185.000 306.200 184.800 L 276.600 184.600 276.393 162.600 L 276.186 140.600 276.193 162.800 M161.790 215.400 C 161.790 231.900,161.839 238.708,161.900 230.530 C 161.960 222.351,161.960 208.851,161.900 200.530 C 161.839 192.208,161.790 198.900,161.790 215.400 M334.633 194.033 C 334.483 195.166,334.441 196.174,334.539 196.272 C 334.637 196.371,334.845 195.528,335.000 194.400 C 335.155 193.272,335.198 192.264,335.094 192.161 C 334.991 192.058,334.784 192.900,334.633 194.033 M333.818 200.218 C 333.665 201.239,333.622 202.155,333.722 202.255 C 333.822 202.355,334.029 201.602,334.182 200.582 C 334.335 199.561,334.378 198.645,334.278 198.545 C 334.178 198.445,333.971 199.198,333.818 200.218 M332.218 212.618 C 332.065 213.639,332.022 214.555,332.122 214.655 C 332.222 214.755,332.429 214.002,332.582 212.982 C 332.735 211.961,332.778 211.045,332.678 210.945 C 332.578 210.845,332.371 211.598,332.218 212.618 M331.469 218.356 C 331.321 219.095,331.220 220.082,331.244 220.550 C 331.268 221.018,331.447 220.590,331.642 219.600 C 331.837 218.610,331.938 217.623,331.867 217.406 C 331.796 217.190,331.617 217.617,331.469 218.356 M330.669 224.756 C 330.521 225.495,330.420 226.482,330.444 226.950 C 330.468 227.418,330.647 226.990,330.842 226.000 C 331.037 225.010,331.138 224.023,331.067 223.806 C 330.996 223.590,330.817 224.017,330.669 224.756 M329.869 230.756 C 329.721 231.495,329.620 232.482,329.644 232.950 C 329.668 233.418,329.847 232.990,330.042 232.000 C 330.237 231.010,330.338 230.023,330.267 229.806 C 330.196 229.590,330.017 230.017,329.869 230.756 M329.000 237.600 C 328.845 238.728,328.802 239.736,328.906 239.839 C 329.009 239.942,329.216 239.100,329.367 237.967 C 329.517 236.834,329.559 235.826,329.461 235.728 C 329.363 235.629,329.155 236.472,329.000 237.600 M328.222 243.422 C 328.072 244.225,328.028 244.962,328.126 245.060 C 328.224 245.157,328.427 244.581,328.578 243.778 C 328.728 242.975,328.772 242.238,328.674 242.140 C 328.576 242.043,328.373 242.619,328.222 243.422 M213.600 322.720 L 213.800 400.200 213.901 323.021 C 213.957 280.573,213.867 245.707,213.701 245.541 C 213.535 245.375,213.490 280.106,213.600 322.720 M276.097 322.700 C 276.151 365.325,276.241 387.600,276.297 372.200 C 276.570 297.655,276.571 245.200,276.300 245.200 C 276.135 245.200,276.044 280.075,276.097 322.700 " stroke="none" fill="#a4b4dc" fill-rule="evenodd"></path><path id="path3" d="M304.305 60.683 C 304.802 60.779,305.522 60.775,305.905 60.675 C 306.287 60.575,305.880 60.496,305.000 60.501 C 304.120 60.505,303.807 60.587,304.305 60.683 M315.505 61.083 C 316.002 61.179,316.722 61.175,317.105 61.075 C 317.487 60.975,317.080 60.896,316.200 60.901 C 315.320 60.905,315.007 60.987,315.505 61.083 M310.700 117.100 C 315.595 117.163,323.605 117.163,328.500 117.100 C 333.395 117.036,329.390 116.984,319.600 116.984 C 309.810 116.984,305.805 117.036,310.700 117.100 M282.175 124.500 L 281.000 125.800 282.300 124.625 C 283.015 123.979,283.600 123.394,283.600 123.325 C 283.600 123.016,283.270 123.288,282.175 124.500 M213.693 135.600 C 213.693 136.370,213.775 136.685,213.876 136.300 C 213.976 135.915,213.976 135.285,213.876 134.900 C 213.775 134.515,213.693 134.830,213.693 135.600 M174.700 245.500 C 181.795 245.561,193.405 245.561,200.500 245.500 C 207.595 245.439,201.790 245.389,187.600 245.389 C 173.410 245.389,167.605 245.439,174.700 245.500 M289.500 245.500 C 296.595 245.561,308.205 245.561,315.300 245.500 C 322.395 245.439,316.590 245.389,302.400 245.389 C 288.210 245.389,282.405 245.439,289.500 245.500 " stroke="none" fill="#9cacd4" fill-rule="evenodd"></path><path id="path4" d="M282.633 60.347 C 281.992 60.486,288.112 60.600,296.233 60.600 C 304.355 60.600,310.100 60.481,309.000 60.335 C 306.464 59.999,284.193 60.009,282.633 60.347 M275.800 61.200 L 275.000 61.544 275.800 61.532 C 276.240 61.526,277.050 61.376,277.600 61.200 L 278.600 60.880 277.600 60.868 C 277.050 60.862,276.240 61.011,275.800 61.200 M317.633 60.946 C 317.725 61.026,319.510 61.189,321.600 61.309 C 323.759 61.433,324.882 61.391,324.200 61.211 C 323.008 60.897,317.314 60.667,317.633 60.946 M271.200 62.000 C 270.436 62.494,271.258 62.494,272.800 62.000 L 273.800 61.680 272.800 61.646 C 272.250 61.627,271.530 61.787,271.200 62.000 M329.233 61.747 C 329.325 61.828,330.570 62.002,332.000 62.135 C 333.676 62.291,334.316 62.248,333.800 62.016 C 333.047 61.677,328.875 61.431,329.233 61.747 M267.600 62.800 C 267.067 63.145,267.067 63.188,267.600 63.188 C 267.930 63.188,268.470 63.013,268.800 62.800 C 269.333 62.455,269.333 62.412,268.800 62.412 C 268.470 62.412,267.930 62.587,267.600 62.800 M337.590 62.663 C 338.239 62.985,338.150 116.081,337.500 116.770 C 337.096 117.198,337.116 117.265,337.600 117.117 C 338.431 116.863,338.520 62.732,337.690 62.563 C 337.410 62.507,337.365 62.552,337.590 62.663 M254.400 67.400 C 253.850 67.714,253.580 67.972,253.800 67.972 C 254.020 67.972,254.650 67.714,255.200 67.400 C 255.750 67.086,256.020 66.828,255.800 66.828 C 255.580 66.828,254.950 67.086,254.400 67.400 M250.200 69.427 C 249.540 69.770,248.820 70.235,248.600 70.461 C 248.380 70.687,248.965 70.477,249.900 69.995 C 250.835 69.513,251.600 69.047,251.600 68.960 C 251.600 68.720,251.500 68.753,250.200 69.427 M244.832 72.605 C 243.420 73.573,241.980 74.660,241.632 75.021 C 241.142 75.531,247.255 71.604,247.967 70.953 C 248.799 70.190,246.885 71.200,244.832 72.605 M237.200 78.535 C 236.430 79.258,235.539 80.198,235.221 80.624 C 234.903 81.051,235.578 80.507,236.721 79.415 C 238.607 77.615,238.998 77.179,238.700 77.211 C 238.645 77.217,237.970 77.813,237.200 78.535 M232.581 83.300 L 231.000 85.000 232.700 83.419 C 234.281 81.948,234.584 81.600,234.281 81.600 C 234.216 81.600,233.451 82.365,232.581 83.300 M222.718 97.300 C 221.490 99.626,220.763 101.296,220.913 101.446 C 220.982 101.515,221.703 100.228,222.516 98.586 C 224.081 95.422,224.239 94.421,222.718 97.300 M219.179 105.055 C 218.958 105.636,218.852 106.185,218.943 106.276 C 219.033 106.367,219.299 105.892,219.533 105.220 C 220.053 103.728,219.739 103.582,219.179 105.055 M216.650 112.850 C 216.317 114.517,216.640 114.840,217.000 113.200 C 217.152 112.509,217.193 111.859,217.091 111.758 C 216.989 111.656,216.791 112.147,216.650 112.850 M215.829 116.229 C 215.681 116.815,215.638 117.372,215.732 117.466 C 215.827 117.560,216.024 117.158,216.171 116.571 C 216.319 115.985,216.362 115.428,216.268 115.334 C 216.173 115.240,215.976 115.642,215.829 116.229 M299.100 117.489 C 299.815 117.578,300.985 117.578,301.700 117.489 C 302.415 117.401,301.830 117.328,300.400 117.328 C 298.970 117.328,298.385 117.401,299.100 117.489 M293.200 118.395 C 292.791 118.655,293.110 118.699,294.200 118.532 C 296.177 118.229,296.514 117.998,294.967 118.006 C 294.325 118.009,293.530 118.184,293.200 118.395 M215.249 119.000 C 215.216 119.440,215.096 120.250,214.983 120.800 L 214.777 121.800 215.206 120.819 C 215.442 120.279,215.561 119.469,215.472 119.019 C 215.313 118.221,215.307 118.221,215.249 119.000 M214.215 125.015 C 214.061 126.254,214.017 127.350,214.119 127.452 C 214.220 127.554,214.430 126.623,214.585 125.385 C 214.739 124.146,214.783 123.050,214.681 122.948 C 214.580 122.846,214.370 123.777,214.215 125.015 M213.521 130.900 C 213.478 130.955,213.343 142.970,213.221 157.600 L 213.000 184.200 187.300 184.303 C 173.165 184.360,161.600 184.540,161.600 184.703 C 161.600 184.866,173.207 184.952,187.394 184.894 L 213.188 184.788 213.389 183.894 C 213.588 183.011,213.894 130.800,213.700 130.800 C 213.645 130.800,213.564 130.845,213.521 130.900 M277.254 135.000 C 277.219 135.440,277.089 136.250,276.967 136.800 C 276.775 137.663,276.807 137.703,277.198 137.090 C 277.447 136.699,277.577 135.889,277.486 135.290 C 277.378 134.579,277.297 134.479,277.254 135.000 M276.595 162.500 L 276.600 184.600 306.275 184.703 L 335.950 184.805 336.112 185.903 C 336.265 186.933,336.272 186.927,336.237 185.800 L 336.200 184.600 306.503 184.497 L 276.807 184.395 276.698 162.397 L 276.590 140.400 276.595 162.500 M335.309 192.800 C 335.309 193.790,335.387 194.195,335.482 193.700 C 335.578 193.205,335.578 192.395,335.482 191.900 C 335.387 191.405,335.309 191.810,335.309 192.800 M334.672 196.604 C 334.527 197.482,334.430 198.830,334.455 199.600 C 334.484 200.478,334.629 200.030,334.844 198.400 C 335.224 195.515,335.087 194.089,334.672 196.604 M333.872 202.604 C 333.727 203.482,333.630 204.830,333.655 205.600 C 333.684 206.478,333.829 206.030,334.044 204.400 C 334.424 201.515,334.287 200.089,333.872 202.604 M332.867 211.250 C 332.830 212.048,332.711 213.308,332.601 214.050 L 332.403 215.400 332.823 214.060 C 333.054 213.323,333.174 212.063,333.089 211.260 L 332.934 209.800 332.867 211.250 M332.063 217.200 C 332.023 217.970,331.906 219.320,331.802 220.200 L 331.612 221.800 332.023 220.200 C 332.248 219.320,332.366 217.970,332.284 217.200 L 332.134 215.800 332.063 217.200 M331.314 223.800 C 331.317 224.900,331.395 225.303,331.487 224.695 C 331.579 224.086,331.577 223.186,331.482 222.695 C 331.387 222.203,331.311 222.700,331.314 223.800 M330.467 229.650 C 330.430 230.447,330.311 231.707,330.201 232.450 L 330.003 233.800 330.423 232.460 C 330.654 231.723,330.774 230.463,330.689 229.660 L 330.534 228.200 330.467 229.650 M329.670 235.850 C 329.631 236.538,329.505 237.707,329.389 238.450 C 329.196 239.686,329.215 239.717,329.608 238.814 C 329.844 238.272,329.971 237.102,329.889 236.214 C 329.768 234.902,329.727 234.833,329.670 235.850 M328.867 242.726 C 328.830 243.456,328.599 244.446,328.353 244.926 C 327.939 245.737,327.955 245.754,328.581 245.158 C 329.057 244.705,329.208 244.058,329.095 242.958 C 328.943 241.482,328.931 241.470,328.867 242.726 M213.396 322.800 C 213.396 365.370,213.443 382.785,213.500 361.500 C 213.557 340.215,213.557 305.385,213.500 284.100 C 213.443 262.815,213.396 280.230,213.396 322.800 M276.596 322.800 C 276.596 365.370,276.643 382.785,276.700 361.500 C 276.757 340.215,276.757 305.385,276.700 284.100 C 276.643 262.815,276.596 280.230,276.596 322.800 " stroke="none" fill="#7c95c9" fill-rule="evenodd"></path></g></svg>