<svg id="svg" version="1.1" xmlns="http://www.w3.org/2000/svg" xmlns:xlink="http://www.w3.org/1999/xlink" width="400" height="307.1061384941034" viewBox="0, 0, 400,307.1061384941034"><g id="svgg"><path id="path0" d="M83.167 74.079 C 66.619 76.023,54.212 85.887,51.671 99.116 C 51.352 100.779,51.060 103.500,51.201 103.500 C 51.244 103.500,52.585 103.241,54.181 102.924 C 61.278 101.514,71.976 100.054,78.706 99.576 L 80.329 99.461 80.939 98.193 C 81.967 96.055,83.841 94.512,86.019 94.010 C 86.502 93.899,101.483 93.840,130.125 93.837 C 168.942 93.834,173.500 93.807,173.500 93.578 C 173.500 93.438,173.686 91.582,173.913 89.453 C 174.966 79.588,175.500 74.438,175.500 74.149 C 175.500 73.751,86.532 73.684,83.167 74.079 M188.252 74.208 C 188.009 75.251,182.873 103.758,182.920 103.806 C 182.949 103.837,184.948 104.152,187.362 104.507 C 194.287 105.523,201.075 106.626,207.629 107.802 L 209.342 108.109 209.422 107.763 C 209.511 107.378,210.278 103.216,210.500 101.917 C 210.649 101.040,211.124 98.381,211.631 95.583 L 211.933 93.917 238.092 93.917 C 263.100 93.917,264.305 93.930,265.500 94.229 C 270.829 95.559,273.389 98.904,273.617 104.833 C 273.728 107.754,273.658 108.319,272.160 116.550 C 271.522 120.052,271.000 122.961,271.000 123.015 C 271.000 123.070,271.319 123.205,271.708 123.317 C 275.503 124.408,288.044 128.667,293.814 130.824 C 295.315 131.386,296.575 131.814,296.613 131.776 C 296.675 131.714,297.644 126.654,298.247 123.250 C 298.376 122.517,299.580 115.917,300.922 108.583 C 302.711 98.802,303.386 94.759,303.453 93.407 C 303.915 84.054,296.802 76.932,284.583 74.516 C 281.136 73.834,281.109 73.833,234.010 73.833 L 188.340 73.833 188.252 74.208 M50.250 103.792 C 46.778 104.486,37.611 107.053,33.750 108.413 C 31.041 109.367,27.125 110.856,26.958 110.996 C 26.889 111.054,28.576 110.782,30.708 110.391 C 35.805 109.457,44.912 107.943,48.208 107.480 L 50.833 107.112 50.833 105.482 C 50.833 103.785,50.798 103.682,50.250 103.792 M297.273 132.562 C 296.935 133.961,295.515 143.081,295.619 143.185 C 295.691 143.256,297.100 143.911,298.750 144.640 C 345.266 165.183,365.344 188.853,350.917 206.140 C 345.562 212.556,334.977 217.948,321.583 221.082 C 307.014 224.492,292.098 226.328,270.500 227.370 C 264.515 227.659,237.772 227.660,232.083 227.372 C 212.296 226.370,195.494 224.830,177.917 222.409 C 164.025 220.496,153.486 218.695,141.000 216.102 C 139.029 215.693,136.929 215.243,136.333 215.102 C 135.737 214.961,134.050 214.574,132.583 214.242 C 129.068 213.447,123.612 212.111,120.940 211.391 C 118.991 210.866,117.960 210.717,119.116 211.127 C 119.373 211.218,120.783 211.723,122.250 212.250 C 155.559 224.201,182.148 229.068,232.417 232.415 C 251.761 233.703,277.483 233.637,295.333 232.254 C 298.313 232.023,301.387 231.760,302.167 231.668 C 302.946 231.577,305.608 231.274,308.083 230.994 C 350.947 226.145,374.427 212.419,373.788 192.583 C 373.222 174.978,349.223 154.149,310.306 137.488 C 300.932 133.474,297.378 132.131,297.273 132.562 " stroke="none" fill="#fc0404" fill-rule="evenodd"></path><path id="path1" d="M77.417 104.427 C 68.756 105.021,51.763 106.848,51.386 107.225 C 51.214 107.397,51.830 110.525,52.330 112.016 C 55.041 120.110,61.691 124.826,72.500 126.324 C 75.981 126.806,78.792 126.851,105.167 126.840 C 133.277 126.828,133.495 126.833,135.053 127.550 C 139.443 129.569,138.758 136.549,133.940 138.887 C 131.830 139.912,135.358 139.839,88.395 139.832 L 45.374 139.826 45.093 141.455 C 44.939 142.350,44.709 143.646,44.581 144.333 C 44.454 145.021,44.159 146.671,43.926 148.000 C 43.692 149.329,43.159 152.367,42.740 154.750 C 41.771 160.263,41.666 160.894,41.712 160.906 C 42.000 160.984,135.772 160.676,136.250 160.596 C 136.617 160.535,137.667 160.368,138.583 160.225 C 153.819 157.854,164.318 147.426,166.580 132.417 C 168.409 120.280,160.432 109.814,148.044 108.098 C 146.555 107.892,141.227 107.819,116.667 107.668 C 85.790 107.478,84.921 107.454,83.430 106.749 C 82.589 106.351,80.833 104.709,80.833 104.320 C 80.833 104.236,80.777 104.176,80.708 104.188 C 80.640 104.200,79.158 104.307,77.417 104.427 M181.577 111.059 C 181.514 111.244,181.004 113.993,179.981 119.667 C 179.708 121.179,179.420 122.792,179.340 123.250 C 179.260 123.708,178.927 125.546,178.598 127.333 C 177.485 133.391,176.360 139.561,175.165 146.167 C 174.511 149.787,173.680 154.337,173.321 156.276 C 172.961 158.215,172.667 159.921,172.667 160.068 C 172.667 160.309,173.929 160.333,186.247 160.333 L 199.827 160.333 199.911 159.958 C 199.976 159.665,201.651 150.498,202.080 148.083 C 202.256 147.091,203.507 140.219,203.748 138.917 C 204.152 136.740,206.831 122.029,207.087 120.583 C 207.217 119.850,207.437 118.612,207.575 117.833 C 207.941 115.776,208.022 115.936,206.458 115.627 C 205.702 115.478,203.433 115.016,201.417 114.602 C 196.330 113.556,192.480 112.819,187.417 111.922 C 185.033 111.500,182.759 111.090,182.363 111.012 C 181.857 110.911,181.623 110.925,181.577 111.059 M269.016 133.900 C 268.926 134.367,268.544 136.475,268.168 138.583 C 267.792 140.692,267.411 142.792,267.321 143.250 C 266.792 145.937,264.333 159.721,264.333 159.999 C 264.333 160.331,264.435 160.333,277.917 160.333 C 285.387 160.333,291.500 160.311,291.500 160.283 C 291.500 160.255,291.691 159.187,291.925 157.908 C 292.158 156.629,292.534 154.536,292.760 153.255 C 293.301 150.190,294.501 143.679,294.608 143.229 C 294.673 142.955,294.585 142.835,294.221 142.700 C 293.962 142.604,292.737 142.103,291.500 141.587 C 285.329 139.013,278.301 136.304,271.465 133.865 L 269.180 133.049 269.016 133.900 M40.000 175.437 C 40.000 175.494,39.358 178.625,38.573 182.395 C 37.788 186.165,36.701 191.425,36.158 194.083 C 35.615 196.742,35.131 199.087,35.081 199.296 L 34.992 199.675 37.863 199.629 L 40.735 199.583 41.025 198.167 C 41.185 197.387,41.737 194.725,42.251 192.250 C 42.766 189.775,43.552 185.987,43.998 183.833 C 44.444 181.679,45.002 179.017,45.237 177.917 C 45.472 176.817,45.665 175.785,45.666 175.625 C 45.667 175.359,45.421 175.333,42.833 175.333 C 41.275 175.333,40.000 175.380,40.000 175.437 M48.718 178.794 C 48.075 181.970,47.286 185.798,45.258 195.570 C 44.841 197.580,44.500 199.324,44.500 199.445 C 44.500 199.621,45.089 199.667,47.333 199.667 C 48.892 199.667,50.167 199.641,50.167 199.609 C 50.167 199.578,50.583 197.534,51.092 195.068 C 51.601 192.601,52.400 188.708,52.867 186.417 C 53.851 181.592,53.821 181.656,54.469 182.938 C 55.052 184.093,56.246 185.766,62.167 193.724 L 66.583 199.661 70.208 199.664 C 72.202 199.665,73.833 199.639,73.833 199.604 C 73.833 199.537,75.142 193.190,76.501 186.667 C 76.969 184.421,77.649 181.121,78.014 179.333 C 78.378 177.546,78.713 175.913,78.759 175.704 L 78.842 175.325 75.974 175.371 L 73.106 175.417 72.894 176.417 C 72.778 176.967,72.150 180.004,71.500 183.167 C 69.849 191.189,69.494 192.880,69.398 193.164 C 69.346 193.317,69.120 193.031,68.805 192.414 C 68.116 191.067,68.354 191.390,61.779 182.875 L 55.955 175.333 52.686 175.335 L 49.417 175.337 48.718 178.794 M82.586 175.542 C 82.524 175.724,82.040 178.041,79.829 188.750 C 79.564 190.033,78.969 192.912,78.507 195.147 C 78.045 197.382,77.667 199.313,77.667 199.439 C 77.667 199.623,78.214 199.667,80.500 199.667 C 82.058 199.667,83.333 199.630,83.333 199.585 C 83.333 199.493,84.182 195.344,85.585 188.583 C 86.098 186.108,86.600 183.671,86.699 183.167 C 86.962 181.835,87.052 181.842,87.812 183.250 C 88.190 183.951,91.031 187.931,94.125 192.094 L 99.750 199.663 103.362 199.665 L 106.974 199.667 107.068 199.208 C 108.753 191.037,110.986 180.271,111.425 178.210 C 111.741 176.721,112.000 175.463,112.000 175.414 C 112.000 175.365,110.711 175.346,109.136 175.371 L 106.271 175.417 105.410 179.583 C 104.936 181.875,104.308 184.912,104.015 186.333 C 102.922 191.625,102.646 192.923,102.563 193.167 C 102.510 193.321,102.227 192.939,101.823 192.167 C 101.450 191.455,99.477 188.729,97.237 185.833 C 95.074 183.037,92.366 179.531,91.220 178.042 L 89.135 175.333 85.896 175.333 C 83.453 175.333,82.639 175.385,82.586 175.542 M121.212 175.570 C 118.296 176.287,115.272 178.912,114.433 181.456 C 114.148 182.318,112.496 190.037,112.104 192.333 C 111.474 196.027,113.380 198.827,116.981 199.499 C 118.499 199.782,134.506 199.712,135.917 199.416 C 137.663 199.049,139.273 198.180,140.735 196.815 C 142.944 194.752,143.168 194.075,145.363 182.849 C 146.003 179.576,144.687 176.874,141.906 175.751 C 140.861 175.329,122.833 175.171,121.212 175.570 M146.333 175.407 C 146.333 175.448,146.815 176.854,147.403 178.532 C 147.991 180.210,149.086 183.346,149.836 185.500 C 151.808 191.162,153.254 195.297,154.062 197.583 L 154.769 199.583 158.277 199.628 L 161.784 199.673 164.850 195.657 C 166.537 193.448,170.679 188.028,174.055 183.612 C 177.432 179.196,180.230 175.527,180.273 175.458 C 180.317 175.390,178.855 175.333,177.025 175.333 L 173.696 175.333 171.376 178.458 C 170.100 180.177,167.572 183.571,165.758 186.000 C 161.769 191.342,160.768 192.741,159.866 194.236 C 159.484 194.869,159.145 195.278,159.108 195.149 C 159.071 195.021,158.911 194.317,158.753 193.583 C 158.518 192.496,153.144 175.884,152.889 175.458 C 152.811 175.328,146.333 175.278,146.333 175.407 M176.250 187.350 C 171.208 193.956,167.058 199.431,167.027 199.517 C 166.992 199.612,168.259 199.656,170.260 199.629 L 173.550 199.583 175.536 196.875 L 177.521 194.167 185.086 194.167 L 192.651 194.167 193.534 196.875 L 194.417 199.583 197.708 199.629 C 199.519 199.653,201.000 199.645,201.000 199.611 C 201.000 199.576,199.457 195.131,197.572 189.732 C 195.686 184.334,193.843 179.054,193.476 178.000 C 193.109 176.946,192.741 175.915,192.658 175.708 C 192.508 175.336,192.484 175.333,188.962 175.337 L 185.417 175.340 176.250 187.350 M199.761 175.708 C 199.718 175.915,199.467 177.115,199.202 178.375 L 198.721 180.667 203.447 180.667 L 208.173 180.667 208.084 181.042 C 207.938 181.655,207.361 184.412,206.818 187.083 C 206.539 188.458,205.865 191.720,205.322 194.333 C 204.778 196.945,204.333 199.213,204.333 199.374 C 204.333 199.641,204.575 199.667,207.138 199.667 L 209.943 199.667 210.215 198.375 C 211.193 193.718,213.833 180.887,213.833 180.788 C 213.833 180.721,215.998 180.667,218.643 180.667 L 223.453 180.667 223.905 178.375 C 224.154 177.115,224.398 175.915,224.447 175.708 L 224.536 175.333 212.188 175.333 L 199.840 175.333 199.761 175.708 M226.865 179.625 C 226.381 181.985,225.570 185.904,225.065 188.333 C 223.449 196.094,222.833 199.151,222.833 199.412 C 222.833 199.630,223.237 199.667,225.667 199.667 C 227.225 199.667,228.500 199.606,228.500 199.532 C 228.500 199.403,229.100 196.474,231.067 187.000 C 231.571 184.571,232.291 181.083,232.667 179.250 C 233.042 177.417,233.389 175.785,233.436 175.625 C 233.516 175.355,233.307 175.333,230.635 175.333 L 227.747 175.333 226.865 179.625 M242.917 175.500 C 239.145 176.279,236.352 179.085,235.432 183.020 C 232.959 193.595,232.888 195.668,234.926 197.718 C 236.789 199.592,237.235 199.661,247.549 199.664 C 256.907 199.667,257.664 199.602,259.583 198.638 C 262.839 197.002,264.250 194.980,265.148 190.667 C 265.425 189.338,265.955 186.809,266.326 185.047 C 267.463 179.647,266.880 177.592,263.761 176.000 L 262.618 175.417 253.100 175.389 C 247.866 175.374,243.283 175.424,242.917 175.500 M271.756 175.542 C 271.719 175.656,271.604 176.162,271.501 176.667 C 271.233 177.974,269.832 184.710,268.833 189.500 C 267.381 196.454,266.833 199.172,266.833 199.424 C 266.833 199.627,267.298 199.667,269.667 199.667 C 271.225 199.667,272.500 199.630,272.500 199.585 C 272.500 199.484,273.685 193.675,274.149 191.500 C 274.334 190.629,274.834 188.229,275.260 186.167 C 276.219 181.511,276.126 181.670,276.974 183.241 C 277.353 183.945,279.402 186.859,281.527 189.718 C 283.651 192.577,286.183 195.985,287.153 197.290 L 288.917 199.663 292.515 199.665 L 296.114 199.667 296.301 198.792 C 296.527 197.732,298.011 190.591,299.167 185.000 C 300.177 180.111,300.992 176.224,301.115 175.704 L 301.205 175.325 298.318 175.371 L 295.432 175.417 295.143 176.833 C 294.984 177.612,294.508 179.900,294.086 181.917 C 293.663 183.933,292.981 187.233,292.570 189.250 C 292.158 191.267,291.782 193.029,291.733 193.167 C 291.677 193.324,291.400 192.951,290.990 192.167 C 290.617 191.454,288.645 188.733,286.402 185.833 C 284.238 183.037,281.530 179.531,280.383 178.042 L 278.297 175.333 275.060 175.333 C 272.617 175.333,271.806 175.384,271.756 175.542 M188.416 181.167 C 188.573 181.946,189.140 183.930,189.676 185.577 C 190.213 187.224,190.629 188.594,190.601 188.621 C 190.573 188.649,188.583 188.652,186.180 188.628 L 181.810 188.583 183.410 186.456 C 185.162 184.126,186.847 181.696,187.574 180.451 C 187.831 180.011,188.061 179.674,188.086 179.701 C 188.111 179.728,188.260 180.387,188.416 181.167 M138.988 180.911 C 139.906 181.385,139.895 181.666,138.740 187.333 C 137.620 192.825,137.498 193.209,136.696 193.755 L 136.089 194.167 127.370 194.167 L 118.652 194.167 118.242 193.758 C 117.754 193.269,117.712 192.532,118.079 190.866 C 118.214 190.252,118.667 188.110,119.085 186.106 C 119.991 181.759,120.182 181.313,121.337 180.853 C 122.065 180.562,138.418 180.616,138.988 180.911 M260.679 181.154 C 261.311 181.785,261.338 181.495,260.088 187.515 C 258.970 192.904,258.836 193.300,257.949 193.841 C 257.114 194.350,240.181 194.347,239.671 193.838 C 239.079 193.246,239.114 192.807,240.170 187.639 C 241.425 181.494,241.506 181.286,242.833 180.787 C 242.971 180.735,246.933 180.687,251.638 180.680 L 260.192 180.667 260.679 181.154 " stroke="none" fill="#040404" fill-rule="evenodd"></path><path id="path2" d="M190.917 13.740 C 190.825 13.773,189.325 13.885,187.583 13.988 C 180.790 14.392,177.751 14.655,173.000 15.251 C 171.946 15.384,170.371 15.573,169.500 15.672 C 168.629 15.770,167.279 15.956,166.500 16.084 C 165.721 16.211,164.483 16.396,163.750 16.494 C 162.100 16.714,159.774 17.113,158.309 17.428 C 157.701 17.559,157.034 17.667,156.829 17.667 C 156.623 17.667,156.184 17.736,155.853 17.821 C 155.521 17.907,154.612 18.099,153.833 18.250 C 153.054 18.401,151.967 18.624,151.417 18.747 C 150.867 18.870,149.967 19.057,149.417 19.164 C 148.867 19.270,148.004 19.460,147.500 19.587 C 146.996 19.713,146.096 19.929,145.500 20.067 C 144.904 20.204,143.779 20.480,143.000 20.679 C 142.221 20.877,141.321 21.094,141.000 21.159 C 140.679 21.224,140.154 21.362,139.833 21.466 C 139.512 21.569,138.650 21.810,137.917 22.000 C 135.595 22.602,134.268 22.963,133.667 23.158 C 133.346 23.262,132.746 23.447,132.333 23.569 C 130.220 24.196,128.307 24.808,125.667 25.702 C 124.063 26.246,122.525 26.753,122.250 26.831 C 121.975 26.908,121.337 27.132,120.833 27.330 C 120.329 27.527,119.504 27.829,119.000 28.000 C 118.496 28.172,117.558 28.514,116.917 28.760 C 116.275 29.006,115.468 29.310,115.123 29.437 C 114.778 29.563,114.365 29.734,114.206 29.817 C 114.047 29.899,113.392 30.171,112.750 30.421 C 112.108 30.671,111.278 31.016,110.906 31.188 C 110.533 31.360,110.176 31.500,110.112 31.500 C 110.049 31.500,109.641 31.660,109.207 31.855 C 108.772 32.050,108.098 32.350,107.708 32.522 C 106.016 33.266,104.653 33.878,102.333 34.933 C 100.182 35.913,91.770 40.183,90.417 40.983 C 89.947 41.260,88.435 42.111,87.500 42.624 C 87.271 42.749,86.858 42.997,86.583 43.174 C 86.308 43.351,85.971 43.549,85.833 43.613 C 85.696 43.677,85.021 44.072,84.334 44.490 C 83.647 44.908,82.954 45.325,82.793 45.417 C 82.173 45.771,79.079 47.733,79.000 47.822 C 78.954 47.874,78.654 48.061,78.333 48.237 C 78.012 48.414,77.712 48.601,77.667 48.654 C 77.621 48.707,77.459 48.825,77.306 48.917 C 76.959 49.125,74.552 50.756,73.333 51.609 C 72.829 51.961,72.392 52.306,72.361 52.375 C 72.331 52.444,72.238 52.500,72.155 52.500 C 72.072 52.500,71.872 52.609,71.710 52.742 C 71.549 52.876,70.442 53.702,69.250 54.579 C 68.058 55.455,66.858 56.369,66.583 56.610 C 66.308 56.850,65.802 57.234,65.458 57.462 C 65.115 57.691,64.833 57.943,64.833 58.022 C 64.833 58.102,64.765 58.167,64.681 58.167 C 64.597 58.167,64.353 58.314,64.139 58.493 C 63.925 58.673,62.962 59.480,62.000 60.287 C 59.492 62.391,59.482 62.399,59.273 62.594 C 59.169 62.692,58.422 63.348,57.614 64.053 C 54.403 66.850,48.038 73.225,45.269 76.417 C 44.633 77.150,44.027 77.825,43.924 77.917 C 43.820 78.008,43.218 78.721,42.585 79.500 C 41.953 80.279,41.392 80.954,41.339 81.000 C 41.285 81.046,40.987 81.421,40.675 81.833 C 40.364 82.246,40.028 82.658,39.929 82.750 C 39.831 82.842,39.417 83.367,39.010 83.917 C 38.603 84.467,38.209 84.942,38.135 84.972 C 38.061 85.003,38.000 85.096,38.000 85.179 C 38.000 85.321,37.671 85.769,37.208 86.257 C 37.094 86.377,37.000 86.557,37.000 86.655 C 37.000 86.753,36.941 86.833,36.869 86.833 C 36.797 86.833,36.607 87.056,36.447 87.327 C 36.286 87.599,36.057 87.919,35.937 88.039 C 35.817 88.159,35.508 88.593,35.251 89.004 C 34.994 89.414,34.737 89.787,34.680 89.833 C 34.549 89.939,32.272 93.360,32.185 93.583 C 32.149 93.675,31.961 93.973,31.768 94.247 C 31.277 94.941,31.023 95.369,30.900 95.708 C 30.842 95.869,30.728 96.000,30.647 96.000 C 30.566 96.000,30.500 96.072,30.500 96.159 C 30.500 96.247,29.991 97.165,29.368 98.201 C 28.745 99.236,28.102 100.346,27.939 100.667 C 27.776 100.987,27.377 101.737,27.052 102.333 C 25.835 104.566,23.333 109.680,23.333 109.937 C 23.333 110.011,23.051 110.653,22.242 112.417 C 21.862 113.246,20.831 115.856,20.498 116.833 C 20.326 117.337,19.948 118.388,19.658 119.167 C 19.368 119.946,19.071 120.808,18.998 121.083 C 18.925 121.358,18.719 122.033,18.541 122.583 C 18.362 123.133,18.085 124.071,17.924 124.667 C 17.764 125.263,17.571 125.910,17.496 126.104 C 17.421 126.299,17.238 126.974,17.091 127.604 C 16.943 128.235,16.716 129.162,16.586 129.667 C 16.268 130.900,15.895 132.551,15.682 133.667 C 14.920 137.651,14.556 139.875,14.342 141.833 C 13.711 147.610,13.667 148.468,13.664 154.945 C 13.662 161.478,13.688 161.982,14.345 168.000 C 14.536 169.753,14.898 172.132,15.245 173.917 C 15.370 174.558,15.561 175.571,15.668 176.167 C 16.051 178.290,17.264 183.199,17.913 185.250 C 18.029 185.617,18.209 186.217,18.313 186.583 C 18.681 187.878,19.646 190.770,20.259 192.417 C 20.600 193.333,20.981 194.366,21.106 194.710 C 21.231 195.055,21.400 195.468,21.482 195.627 C 21.564 195.786,21.952 196.704,22.343 197.667 C 24.223 202.294,27.480 208.672,30.383 213.411 C 31.093 214.571,32.079 216.121,32.931 217.417 C 33.473 218.242,33.947 218.988,33.984 219.076 C 34.020 219.163,34.114 219.313,34.193 219.409 C 34.271 219.505,35.276 220.896,36.427 222.500 C 37.578 224.104,38.590 225.442,38.677 225.472 C 38.763 225.503,38.833 225.634,38.833 225.764 C 38.833 225.894,38.902 226.000,38.986 226.000 C 39.071 226.000,39.291 226.244,39.475 226.542 C 39.660 226.840,39.947 227.234,40.114 227.417 C 40.280 227.601,40.864 228.314,41.410 229.001 C 41.956 229.688,42.486 230.325,42.587 230.417 C 42.688 230.508,43.175 231.071,43.670 231.667 C 44.165 232.262,44.685 232.871,44.827 233.019 C 44.968 233.166,45.678 233.954,46.405 234.769 C 48.021 236.580,54.824 243.375,56.398 244.750 C 57.027 245.300,57.708 245.910,57.910 246.105 C 58.112 246.300,58.834 246.935,59.514 247.517 C 60.194 248.098,60.831 248.651,60.931 248.746 C 61.030 248.840,61.439 249.179,61.838 249.500 C 62.238 249.821,63.019 250.461,63.574 250.922 C 64.129 251.383,64.921 252.019,65.333 252.334 C 65.746 252.650,66.121 252.954,66.167 253.011 C 66.212 253.068,67.000 253.666,67.917 254.341 C 68.833 255.016,69.608 255.627,69.639 255.701 C 69.669 255.774,69.801 255.833,69.931 255.833 C 70.060 255.833,70.167 255.897,70.167 255.975 C 70.167 256.052,70.308 256.183,70.481 256.266 C 70.654 256.349,71.010 256.587,71.273 256.795 C 71.535 257.003,72.612 257.771,73.667 258.501 C 74.721 259.231,75.658 259.889,75.750 259.962 C 75.966 260.135,78.486 261.770,79.667 262.503 C 80.171 262.816,80.621 263.112,80.667 263.161 C 80.712 263.210,81.012 263.394,81.333 263.571 C 81.654 263.747,81.954 263.943,82.000 264.007 C 82.046 264.070,82.383 264.284,82.750 264.482 C 83.117 264.681,83.642 264.990,83.917 265.170 C 84.192 265.349,84.529 265.550,84.666 265.615 C 84.871 265.713,86.882 266.911,87.833 267.502 C 87.971 267.588,88.346 267.788,88.667 267.948 C 88.987 268.107,89.737 268.517,90.333 268.858 C 92.609 270.160,98.585 273.202,102.167 274.880 C 104.689 276.063,106.014 276.667,106.086 276.667 C 106.127 276.667,106.780 276.953,107.538 277.304 C 108.296 277.654,109.179 278.040,109.500 278.160 C 109.821 278.281,110.552 278.594,111.125 278.856 C 111.699 279.119,112.213 279.333,112.269 279.333 C 112.325 279.333,113.056 279.603,113.893 279.932 C 114.731 280.262,115.792 280.678,116.250 280.858 C 116.708 281.038,117.233 281.252,117.417 281.334 C 117.600 281.416,118.087 281.596,118.500 281.733 C 118.912 281.870,119.662 282.141,120.167 282.335 C 120.671 282.529,121.458 282.805,121.917 282.948 C 122.375 283.091,122.986 283.311,123.275 283.437 C 123.564 283.564,123.880 283.667,123.978 283.667 C 124.075 283.667,124.402 283.775,124.703 283.907 C 125.294 284.167,129.652 285.548,132.083 286.246 C 134.789 287.023,135.412 287.208,135.771 287.342 C 135.966 287.415,136.641 287.598,137.271 287.750 C 137.901 287.901,138.754 288.123,139.167 288.243 C 139.994 288.483,141.759 288.949,142.667 289.167 C 142.987 289.244,143.700 289.418,144.250 289.554 C 144.800 289.690,145.625 289.891,146.083 290.001 C 147.311 290.296,150.628 291.006,151.558 291.173 C 152.003 291.253,152.603 291.389,152.892 291.474 C 153.180 291.560,153.979 291.722,154.667 291.834 C 155.354 291.946,156.367 292.135,156.917 292.255 C 157.467 292.374,158.517 292.559,159.250 292.666 C 159.983 292.772,161.146 292.961,161.833 293.085 C 163.722 293.425,166.077 293.788,167.750 293.997 C 168.575 294.100,170.037 294.288,171.000 294.415 C 185.949 296.387,204.197 296.884,219.667 295.742 C 226.203 295.259,229.111 294.977,233.333 294.417 C 234.296 294.289,235.758 294.100,236.583 293.997 C 238.256 293.788,240.611 293.425,242.500 293.085 C 243.188 292.961,244.350 292.772,245.083 292.665 C 245.817 292.557,246.904 292.368,247.500 292.245 C 248.096 292.121,249.071 291.935,249.667 291.832 C 250.262 291.729,251.275 291.529,251.917 291.388 C 252.558 291.246,253.533 291.032,254.083 290.911 C 254.633 290.789,255.533 290.601,256.083 290.492 C 257.112 290.288,258.394 289.989,260.000 289.579 C 260.504 289.451,261.367 289.238,261.917 289.106 C 262.467 288.975,263.517 288.702,264.250 288.501 C 264.983 288.299,266.221 287.963,267.000 287.753 C 267.779 287.544,268.829 287.249,269.333 287.098 C 269.837 286.946,270.775 286.679,271.417 286.504 C 272.058 286.329,273.333 285.951,274.250 285.665 C 275.167 285.379,276.142 285.082,276.417 285.004 C 276.692 284.926,277.142 284.783,277.417 284.685 C 279.142 284.071,279.977 283.791,280.418 283.680 C 280.694 283.610,281.069 283.473,281.251 283.375 C 281.434 283.278,281.958 283.083,282.417 282.942 C 282.875 282.802,283.662 282.528,284.167 282.333 C 284.671 282.138,285.496 281.840,286.000 281.671 C 286.824 281.394,287.620 281.088,288.583 280.676 C 288.767 280.598,289.179 280.440,289.500 280.325 C 289.821 280.210,290.308 280.025,290.583 279.912 C 294.065 278.491,295.927 277.710,296.785 277.313 C 297.354 277.049,297.857 276.833,297.902 276.833 C 297.989 276.833,299.189 276.288,301.833 275.048 C 303.700 274.173,309.639 271.231,310.000 271.003 C 310.137 270.916,310.550 270.705,310.917 270.534 C 311.712 270.162,313.684 269.093,314.500 268.590 C 314.821 268.392,315.346 268.102,315.667 267.944 C 315.987 267.786,316.362 267.587,316.500 267.500 C 317.621 266.795,319.035 266.000,319.170 266.000 C 319.260 266.000,319.333 265.934,319.333 265.853 C 319.333 265.772,319.465 265.660,319.625 265.605 C 319.785 265.549,320.142 265.358,320.417 265.180 C 320.692 265.002,321.217 264.693,321.583 264.493 C 321.950 264.294,322.287 264.082,322.333 264.023 C 322.463 263.858,323.052 263.501,323.375 263.392 C 323.535 263.339,323.667 263.237,323.667 263.167 C 323.667 263.096,323.798 262.995,323.958 262.941 C 324.232 262.849,324.672 262.590,325.074 262.283 C 325.171 262.209,325.962 261.688,326.833 261.126 C 327.704 260.564,328.442 260.043,328.472 259.969 C 328.503 259.894,328.595 259.833,328.678 259.833 C 328.810 259.833,330.847 258.446,331.750 257.741 C 331.933 257.597,332.365 257.321,332.708 257.126 C 333.052 256.931,333.333 256.716,333.333 256.647 C 333.333 256.578,333.633 256.353,334.000 256.147 C 334.367 255.941,334.667 255.711,334.667 255.636 C 334.667 255.561,334.779 255.500,334.917 255.500 C 335.054 255.500,335.167 255.440,335.167 255.366 C 335.167 255.293,335.598 254.928,336.125 254.555 C 336.652 254.183,337.721 253.372,338.500 252.754 C 339.279 252.137,340.171 251.433,340.481 251.190 C 340.792 250.948,341.132 250.667,341.237 250.565 C 341.343 250.464,341.876 250.018,342.423 249.574 C 342.969 249.130,343.501 248.688,343.603 248.592 C 343.706 248.496,344.156 248.105,344.603 247.724 C 349.457 243.591,356.853 236.205,360.681 231.667 C 361.261 230.979,361.781 230.379,361.835 230.333 C 361.889 230.287,362.380 229.688,362.925 229.000 C 363.471 228.313,363.996 227.675,364.093 227.583 C 364.190 227.492,364.487 227.117,364.753 226.750 C 365.020 226.383,365.334 225.985,365.450 225.865 C 365.861 225.443,370.000 219.665,370.000 219.514 C 370.000 219.430,370.057 219.336,370.127 219.306 C 370.196 219.275,370.718 218.537,371.285 217.667 C 371.852 216.796,372.376 216.008,372.450 215.917 C 372.523 215.825,372.732 215.469,372.913 215.125 C 373.094 214.781,373.292 214.500,373.352 214.500 C 373.412 214.500,373.509 214.369,373.567 214.208 C 373.625 214.048,373.765 213.766,373.878 213.583 C 376.132 209.924,381.500 199.590,381.500 198.910 C 381.500 198.873,381.679 198.447,381.898 197.963 C 382.117 197.479,382.501 196.558,382.751 195.917 C 383.002 195.275,383.359 194.375,383.545 193.917 C 383.987 192.827,385.314 189.080,385.523 188.333 C 385.810 187.305,385.966 186.785,386.497 185.083 C 386.783 184.167,387.083 183.117,387.163 182.750 C 387.242 182.383,387.488 181.371,387.709 180.500 C 387.929 179.629,388.204 178.467,388.319 177.917 C 388.435 177.367,388.631 176.429,388.755 175.833 C 388.879 175.237,389.065 174.225,389.168 173.583 C 389.271 172.942,389.457 171.817,389.583 171.083 C 389.834 169.609,390.236 166.240,390.498 163.417 C 391.064 157.292,390.597 144.929,389.565 138.750 C 389.427 137.925,389.237 136.762,389.142 136.167 C 389.048 135.571,388.868 134.596,388.743 134.000 C 388.618 133.404,388.429 132.467,388.322 131.917 C 388.216 131.367,388.031 130.579,387.912 130.167 C 387.793 129.754,387.660 129.229,387.616 129.000 C 387.517 128.481,386.793 125.806,386.330 124.250 C 386.139 123.608,385.920 122.858,385.844 122.583 C 385.629 121.806,384.434 118.336,383.921 117.000 C 383.295 115.369,382.766 114.029,382.561 113.558 C 382.436 113.269,382.333 112.983,382.333 112.923 C 382.333 112.862,382.146 112.405,381.917 111.906 C 381.688 111.408,381.308 110.569,381.072 110.042 C 380.837 109.515,380.443 108.637,380.197 108.092 C 379.543 106.643,376.846 101.374,376.183 100.250 C 375.525 99.135,374.985 98.193,374.390 97.125 C 374.045 96.506,373.704 96.000,373.632 96.000 C 373.559 96.000,373.500 95.921,373.500 95.825 C 373.500 95.729,373.219 95.223,372.876 94.700 C 372.532 94.178,372.214 93.670,372.167 93.573 C 372.033 93.289,369.774 89.925,369.657 89.833 C 369.598 89.787,369.339 89.414,369.082 89.004 C 368.825 88.593,368.516 88.159,368.396 88.039 C 368.276 87.919,368.047 87.599,367.887 87.327 C 367.726 87.056,367.536 86.833,367.464 86.833 C 367.392 86.833,367.333 86.721,367.333 86.583 C 367.333 86.446,367.275 86.333,367.203 86.333 C 367.131 86.333,366.941 86.111,366.780 85.839 C 366.620 85.568,366.397 85.249,366.286 85.131 C 366.174 85.013,365.751 84.467,365.344 83.917 C 364.938 83.367,364.563 82.879,364.510 82.833 C 364.458 82.787,363.969 82.188,363.425 81.500 C 362.880 80.813,362.385 80.212,362.325 80.167 C 362.265 80.121,361.852 79.633,361.408 79.083 C 360.964 78.533,360.522 78.001,360.425 77.901 C 360.329 77.801,359.762 77.166,359.167 76.491 C 355.796 72.672,349.271 66.184,346.083 63.482 C 345.717 63.171,345.342 62.837,345.250 62.740 C 345.158 62.643,344.596 62.157,344.000 61.661 C 343.404 61.164,342.698 60.552,342.430 60.299 C 342.163 60.047,341.506 59.522,340.972 59.132 C 340.437 58.743,340.000 58.367,340.000 58.296 C 340.000 58.225,339.887 58.167,339.750 58.167 C 339.612 58.167,339.500 58.098,339.500 58.014 C 339.500 57.929,339.256 57.709,338.958 57.525 C 338.660 57.340,338.236 57.020,338.016 56.814 C 337.796 56.608,336.971 55.962,336.183 55.377 C 335.395 54.793,334.563 54.165,334.333 53.981 C 334.104 53.797,333.710 53.522,333.458 53.370 C 333.206 53.219,333.000 53.036,333.000 52.964 C 333.000 52.892,332.894 52.833,332.764 52.833 C 332.634 52.833,332.503 52.773,332.472 52.700 C 332.442 52.627,331.892 52.210,331.250 51.774 C 329.509 50.591,328.437 49.850,328.250 49.703 C 327.832 49.373,322.465 45.945,321.540 45.417 C 321.380 45.325,320.686 44.908,319.999 44.490 C 319.312 44.072,318.637 43.677,318.500 43.613 C 318.362 43.549,318.025 43.348,317.750 43.167 C 317.475 42.985,317.137 42.785,317.000 42.721 C 316.862 42.657,316.262 42.308,315.667 41.944 C 315.071 41.581,314.358 41.179,314.083 41.051 C 313.808 40.924,312.983 40.487,312.250 40.081 C 310.753 39.253,302.791 35.271,301.250 34.581 C 300.700 34.334,299.950 33.996,299.583 33.830 C 299.217 33.663,298.560 33.371,298.125 33.180 C 296.830 32.613,295.972 32.229,294.969 31.769 C 294.447 31.529,293.947 31.333,293.857 31.333 C 293.767 31.333,293.481 31.225,293.222 31.093 C 292.962 30.961,292.225 30.653,291.583 30.410 C 290.942 30.166,290.286 29.899,290.127 29.817 C 289.968 29.734,289.555 29.563,289.210 29.437 C 288.866 29.310,288.058 29.006,287.417 28.760 C 286.775 28.514,285.837 28.172,285.333 28.000 C 284.829 27.829,284.004 27.531,283.500 27.338 C 282.996 27.146,281.831 26.734,280.911 26.424 C 279.992 26.113,279.054 25.787,278.828 25.699 C 278.602 25.610,277.742 25.330,276.917 25.077 C 276.092 24.823,274.967 24.468,274.417 24.286 C 273.867 24.105,273.192 23.895,272.917 23.820 C 272.642 23.745,271.892 23.527,271.250 23.335 C 269.888 22.927,268.285 22.484,266.417 22.000 C 265.683 21.810,264.821 21.569,264.500 21.466 C 264.179 21.362,263.654 21.224,263.333 21.160 C 263.012 21.095,262.188 20.895,261.500 20.715 C 260.813 20.535,259.650 20.254,258.917 20.091 C 258.183 19.927,257.246 19.698,256.833 19.580 C 256.421 19.463,255.596 19.278,255.000 19.171 C 254.404 19.063,253.467 18.874,252.917 18.751 C 251.792 18.499,249.669 18.069,248.417 17.840 C 247.958 17.756,246.983 17.576,246.250 17.440 C 243.609 16.949,242.059 16.689,240.667 16.500 C 239.887 16.395,238.612 16.205,237.833 16.078 C 237.054 15.952,235.667 15.764,234.750 15.662 C 233.833 15.560,232.296 15.373,231.333 15.248 C 228.494 14.878,224.930 14.526,222.167 14.342 C 220.746 14.248,218.571 14.083,217.333 13.977 C 215.293 13.801,191.347 13.587,190.917 13.740 M175.558 73.793 C 175.601 73.862,175.500 75.156,175.334 76.668 C 175.168 78.180,174.912 80.579,174.766 82.000 C 174.055 88.899,173.655 92.640,173.567 93.208 L 173.471 93.833 130.610 93.837 C 86.032 93.840,86.256 93.836,84.587 94.574 C 82.964 95.292,80.667 97.944,80.667 99.100 C 80.667 99.451,80.489 99.487,77.476 99.749 C 69.427 100.450,61.667 101.524,54.602 102.913 C 52.962 103.236,51.507 103.500,51.369 103.500 C 50.764 103.500,51.507 98.568,52.598 95.347 C 56.639 83.408,69.950 74.747,85.750 73.778 C 87.634 73.662,175.487 73.677,175.558 73.793 M279.917 73.833 C 295.910 75.119,305.165 83.835,303.281 95.833 C 303.063 97.218,299.845 114.963,298.506 122.167 C 298.241 123.587,297.751 126.287,297.416 128.167 C 297.081 130.046,296.780 131.671,296.747 131.778 C 296.708 131.906,295.809 131.641,294.135 131.010 C 289.575 129.290,282.204 126.735,276.594 124.928 C 273.575 123.956,271.066 123.121,271.018 123.074 C 270.970 123.026,271.433 120.196,272.047 116.785 C 272.662 113.374,273.255 110.058,273.367 109.417 C 274.901 100.592,271.356 94.958,263.671 94.008 C 262.228 93.829,212.000 93.744,212.000 93.920 C 212.000 94.317,209.441 107.947,209.348 108.045 C 209.281 108.116,208.219 107.988,206.988 107.761 C 203.130 107.049,191.769 105.205,187.333 104.570 C 184.996 104.236,183.021 103.904,182.944 103.833 C 182.823 103.722,183.820 97.992,186.496 83.417 C 186.849 81.492,187.374 78.604,187.661 77.000 C 187.949 75.396,188.215 73.990,188.254 73.875 C 188.341 73.613,276.677 73.572,279.917 73.833 M50.833 105.409 L 50.833 107.152 50.292 107.242 C 49.994 107.291,48.438 107.523,46.833 107.756 C 42.132 108.439,36.575 109.375,29.940 110.604 C 28.211 110.924,26.766 111.155,26.728 111.117 C 26.174 110.562,47.932 103.764,50.542 103.676 C 50.801 103.668,50.833 103.857,50.833 105.409 M81.085 104.507 C 81.276 105.108,82.552 106.208,83.667 106.734 L 84.750 107.245 93.750 107.354 C 98.700 107.415,112.388 107.515,124.167 107.576 C 147.251 107.696,147.901 107.720,151.135 108.596 C 161.687 111.452,168.178 121.104,166.762 131.833 C 164.660 147.767,153.777 158.284,137.000 160.595 C 133.893 161.023,41.444 161.109,41.576 160.684 C 41.622 160.537,41.805 159.554,41.982 158.500 C 42.283 156.718,42.765 153.969,44.568 143.750 L 45.274 139.750 88.095 139.722 C 134.913 139.691,131.965 139.745,133.693 138.881 C 138.786 136.336,139.449 129.802,134.845 127.540 L 133.917 127.083 105.000 126.981 C 75.970 126.878,74.990 126.857,71.251 126.255 C 60.598 124.538,53.831 119.024,51.753 110.364 C 51.268 108.345,51.139 107.165,51.394 107.074 C 51.707 106.961,58.856 106.048,62.333 105.676 C 64.121 105.485,66.258 105.254,67.083 105.164 C 68.297 105.031,72.987 104.640,77.667 104.282 C 80.084 104.097,80.974 104.156,81.085 104.507 M183.833 111.162 C 184.887 111.342,187.175 111.750,188.917 112.070 C 190.658 112.390,192.533 112.734,193.083 112.834 C 194.619 113.114,205.605 115.323,206.875 115.608 C 207.494 115.747,208.000 115.948,208.000 116.055 C 208.000 116.162,207.885 116.850,207.744 117.583 C 207.604 118.317,207.383 119.517,207.255 120.250 C 207.126 120.983,206.299 125.521,205.416 130.333 C 204.533 135.146,203.747 139.458,203.668 139.917 C 203.393 141.521,202.827 144.647,201.419 152.333 C 200.639 156.596,200.000 160.140,200.000 160.208 C 200.000 160.277,193.813 160.333,186.250 160.333 C 178.688 160.333,172.500 160.277,172.500 160.208 C 172.500 160.140,172.613 159.483,172.752 158.750 C 173.200 156.377,174.794 147.629,175.075 146.000 C 175.225 145.129,175.490 143.667,175.664 142.750 C 175.964 141.169,176.241 139.661,176.748 136.833 C 176.872 136.146,177.167 134.533,177.404 133.250 C 177.641 131.967,178.622 126.567,179.583 121.250 C 181.608 110.053,181.449 110.833,181.712 110.834 C 181.824 110.835,182.779 110.982,183.833 111.162 M301.178 133.647 C 364.787 158.831,390.114 191.218,363.417 213.239 C 352.992 221.837,333.745 228.135,309.417 230.908 C 308.133 231.055,305.846 231.321,304.333 231.500 C 302.821 231.678,299.558 231.977,297.083 232.162 C 294.608 232.348,291.683 232.572,290.583 232.661 C 289.483 232.750,287.533 232.862,286.250 232.911 C 284.967 232.961,282.192 233.089,280.083 233.197 C 274.917 233.461,253.316 233.462,246.667 233.199 C 237.621 232.840,223.610 231.973,216.583 231.337 C 215.575 231.246,213.400 231.057,211.750 230.917 C 176.692 227.946,150.127 222.415,122.083 212.250 C 116.671 210.288,116.466 210.142,120.710 211.276 C 161.390 222.144,218.318 228.670,262.417 227.521 C 301.678 226.497,329.173 221.439,343.071 212.683 C 369.784 195.854,352.307 168.586,299.794 145.163 C 296.479 143.685,295.504 143.181,295.502 142.948 C 295.500 142.600,297.137 132.688,297.248 132.375 C 297.346 132.101,296.954 131.975,301.178 133.647 M272.833 134.253 C 279.831 136.771,286.439 139.334,292.083 141.717 L 294.583 142.772 294.551 143.511 C 294.533 143.917,294.400 144.887,294.255 145.667 C 294.029 146.883,293.049 152.277,292.242 156.750 C 292.109 157.483,291.915 158.590,291.809 159.208 L 291.618 160.333 277.892 160.333 C 266.106 160.333,264.167 160.300,264.167 160.095 C 264.167 159.964,264.498 158.070,264.902 155.887 C 265.307 153.703,266.054 149.629,266.562 146.833 C 267.071 144.037,267.719 140.475,268.003 138.917 C 268.287 137.358,268.630 135.454,268.765 134.684 C 268.900 133.915,269.052 133.218,269.102 133.136 C 269.216 132.952,269.240 132.960,272.833 134.253 M45.833 175.370 C 45.833 175.482,45.611 176.626,45.340 177.912 C 45.068 179.198,44.167 183.550,43.336 187.583 C 41.677 195.640,41.420 196.858,41.020 198.583 L 40.750 199.750 37.875 199.796 L 35.000 199.841 35.000 199.412 C 35.000 199.176,35.111 198.480,35.246 197.866 C 35.382 197.252,35.950 194.537,36.508 191.833 C 37.066 189.129,37.887 185.154,38.332 183.000 C 38.777 180.846,39.301 178.296,39.496 177.333 C 39.691 176.371,39.882 175.490,39.920 175.375 C 40.019 175.078,45.833 175.073,45.833 175.370 M58.699 178.708 C 66.149 188.313,68.334 191.221,68.797 192.148 L 69.302 193.157 69.555 191.954 C 69.695 191.292,69.999 189.850,70.231 188.750 C 71.105 184.617,73.000 175.402,73.000 175.287 C 73.000 175.149,78.731 175.120,78.867 175.256 C 78.952 175.341,78.521 177.506,76.235 188.500 C 75.711 191.021,74.973 194.583,74.596 196.417 L 73.909 199.750 70.330 199.791 C 68.361 199.813,66.670 199.776,66.573 199.708 C 66.290 199.509,55.443 184.835,54.900 183.917 C 54.629 183.458,54.313 182.867,54.197 182.603 C 53.937 182.009,53.877 182.066,53.675 183.096 C 53.526 183.852,52.800 187.377,50.979 196.167 C 50.590 198.046,50.192 199.638,50.094 199.706 C 49.828 199.889,44.536 199.860,44.421 199.674 C 44.338 199.539,45.192 195.196,46.915 187.000 C 47.415 184.623,49.149 176.248,49.270 175.625 L 49.360 175.167 52.656 175.167 L 55.952 175.167 58.699 178.708 M91.606 178.375 C 99.311 188.314,101.306 190.956,101.828 191.918 C 102.578 193.302,102.341 193.909,103.752 187.000 C 104.155 185.029,104.677 182.517,104.914 181.417 C 105.360 179.337,106.167 175.358,106.167 175.237 C 106.167 175.198,107.518 175.167,109.170 175.167 L 112.173 175.167 112.085 175.542 C 112.037 175.748,111.844 176.667,111.656 177.583 C 110.706 182.232,109.964 185.822,109.505 188.000 C 109.036 190.225,108.005 195.196,107.343 198.417 L 107.069 199.750 103.493 199.791 C 99.279 199.839,100.003 200.191,97.578 196.917 C 96.491 195.450,94.067 192.188,92.191 189.667 C 88.948 185.310,87.838 183.685,87.364 182.603 C 87.080 181.953,87.060 181.994,86.593 184.263 C 86.127 186.522,84.568 194.048,83.920 197.167 C 83.682 198.313,83.447 199.381,83.399 199.542 C 83.296 199.882,77.788 199.997,77.582 199.664 C 77.524 199.570,77.740 198.239,78.063 196.705 C 78.385 195.172,79.022 192.117,79.479 189.917 C 79.935 187.717,80.721 183.929,81.225 181.500 C 81.729 179.071,82.227 176.652,82.332 176.125 L 82.524 175.167 85.821 175.167 L 89.118 175.167 91.606 178.375 M141.874 175.637 C 145.699 177.181,146.245 179.499,144.609 187.250 C 142.950 195.105,142.516 195.986,139.235 198.156 C 137.002 199.633,137.454 199.583,126.167 199.583 L 116.250 199.583 115.297 199.115 C 113.272 198.121,112.007 196.318,111.870 194.232 C 111.790 193.011,111.756 193.204,113.599 184.445 C 114.570 179.832,116.010 177.763,119.391 176.126 C 121.295 175.203,121.579 175.182,131.667 175.218 L 140.917 175.250 141.874 175.637 M153.529 176.958 C 157.226 188.087,158.446 191.863,158.846 193.417 C 159.106 194.425,159.322 195.149,159.326 195.026 C 159.339 194.621,161.123 192.044,164.806 187.107 C 166.798 184.435,169.614 180.656,171.062 178.708 L 173.695 175.167 177.098 175.167 C 178.969 175.167,180.500 175.209,180.500 175.260 C 180.500 175.341,177.647 179.116,174.902 182.667 C 174.442 183.262,171.748 186.787,168.916 190.500 C 166.084 194.213,163.350 197.794,162.842 198.460 L 161.917 199.669 158.270 199.626 L 154.624 199.583 153.381 196.000 C 152.697 194.029,151.850 191.592,151.498 190.583 C 151.145 189.575,150.333 187.250,149.693 185.417 C 149.053 183.583,148.027 180.658,147.415 178.917 C 146.802 177.175,146.262 175.619,146.214 175.458 C 146.134 175.187,146.368 175.167,149.531 175.167 L 152.934 175.167 153.529 176.958 M192.778 175.790 C 193.019 176.369,194.369 180.199,196.083 185.167 C 196.478 186.313,197.289 188.637,197.885 190.333 C 198.481 192.029,199.459 194.824,200.059 196.545 L 201.149 199.673 197.704 199.628 L 194.260 199.583 193.537 197.250 C 193.139 195.967,192.745 194.747,192.660 194.540 L 192.506 194.163 185.048 194.207 L 177.590 194.250 175.611 196.958 L 173.632 199.667 170.233 199.667 C 168.363 199.667,166.833 199.629,166.833 199.584 C 166.833 199.516,174.902 188.905,177.624 185.394 C 178.060 184.831,179.992 182.302,181.917 179.774 L 185.417 175.177 188.967 175.172 L 192.517 175.167 192.778 175.790 M224.667 175.253 C 224.667 175.387,224.020 178.454,223.727 179.706 L 223.465 180.828 218.699 180.872 L 213.932 180.917 213.558 182.750 C 213.353 183.758,212.773 186.571,212.269 189.000 C 211.765 191.429,211.074 194.767,210.733 196.417 C 210.392 198.067,210.041 199.510,209.953 199.625 C 209.753 199.885,204.410 199.926,204.251 199.668 C 204.141 199.491,204.242 198.892,204.922 195.667 C 205.562 192.631,206.556 187.841,207.240 184.500 C 207.568 182.896,207.875 181.415,207.922 181.208 L 208.006 180.833 203.337 180.833 C 200.006 180.833,198.667 180.780,198.667 180.647 C 198.667 180.422,199.641 175.670,199.748 175.375 C 199.823 175.166,224.667 175.044,224.667 175.253 M233.536 175.258 C 233.586 175.309,233.556 175.665,233.468 176.050 C 233.268 176.923,231.739 184.282,229.235 196.417 C 228.894 198.067,228.543 199.510,228.454 199.625 C 228.214 199.935,222.857 199.922,222.737 199.611 C 222.691 199.488,222.987 197.782,223.397 195.819 C 223.807 193.856,224.452 190.750,224.831 188.917 C 226.725 179.751,227.363 176.682,227.524 175.958 L 227.700 175.167 230.572 175.167 C 232.152 175.167,233.486 175.208,233.536 175.258 M262.200 175.354 C 264.658 175.875,266.351 177.500,266.945 179.908 C 267.273 181.238,267.099 182.310,264.992 191.917 C 264.233 195.374,261.993 197.919,258.572 199.210 C 257.589 199.581,257.530 199.583,247.667 199.583 L 237.750 199.583 236.750 199.117 C 234.065 197.863,232.808 195.290,233.396 192.249 C 234.367 187.225,235.527 181.944,235.825 181.189 C 236.853 178.579,239.565 176.281,242.534 175.504 C 243.997 175.120,260.505 174.995,262.200 175.354 M281.929 179.875 C 289.712 189.950,290.599 191.130,291.078 192.053 C 291.675 193.201,291.598 193.354,292.410 189.417 C 292.750 187.767,293.511 184.092,294.101 181.250 C 294.691 178.408,295.216 175.877,295.267 175.625 L 295.360 175.167 298.235 175.167 C 301.644 175.167,301.362 174.990,300.969 176.880 C 300.793 177.725,300.207 180.554,299.667 183.167 C 298.821 187.258,297.619 193.045,296.553 198.167 C 296.180 199.957,296.495 199.828,292.500 199.828 C 290.621 199.828,289.003 199.773,288.904 199.706 C 288.806 199.638,286.300 196.321,283.336 192.333 C 278.443 185.751,277.216 184.005,276.511 182.625 C 276.202 182.020,276.239 181.932,275.674 184.680 C 275.402 186.002,274.798 188.921,274.332 191.167 C 273.865 193.412,273.299 196.150,273.072 197.250 C 272.846 198.350,272.620 199.381,272.569 199.542 C 272.449 199.924,266.885 199.995,266.739 199.615 C 266.693 199.495,266.887 198.314,267.170 196.990 C 267.453 195.666,267.789 194.058,267.917 193.417 C 268.044 192.775,268.523 190.450,268.981 188.250 C 270.850 179.268,271.667 175.311,271.667 175.241 C 271.667 175.200,273.157 175.167,274.979 175.167 L 278.291 175.167 281.929 179.875 M187.833 180.134 C 187.833 180.398,185.445 183.930,183.739 186.189 C 182.782 187.456,182.000 188.531,182.000 188.579 C 182.000 188.627,183.912 188.667,186.250 188.667 C 188.588 188.667,190.500 188.606,190.500 188.533 C 190.500 188.459,190.162 187.402,189.750 186.185 C 188.921 183.737,188.167 180.974,188.167 180.383 C 188.167 180.172,188.092 180.000,188.000 180.000 C 187.908 180.000,187.833 180.060,187.833 180.134 M121.236 180.995 C 120.792 181.174,120.024 182.085,119.920 182.555 C 119.837 182.927,118.979 187.120,118.217 190.869 C 117.506 194.374,116.925 194.167,127.472 194.167 C 138.145 194.167,137.102 194.658,138.254 189.083 C 138.671 187.067,139.161 184.704,139.343 183.833 C 139.707 182.091,139.655 181.461,139.116 181.084 C 138.714 180.801,121.920 180.718,121.236 180.995 M242.383 181.160 C 241.486 181.707,241.564 181.448,240.004 188.990 C 238.824 194.691,237.936 194.167,248.783 194.166 C 259.106 194.166,258.577 194.335,259.298 190.807 C 259.492 189.859,259.954 187.604,260.325 185.796 C 261.105 181.997,261.115 181.858,260.655 181.272 L 260.309 180.833 251.613 180.834 C 243.282 180.835,242.894 180.848,242.383 181.160 " stroke="none" fill="#fbfbfb" fill-rule="evenodd"></path><path id="path3" d="M277.875 73.782 C 278.035 73.823,278.298 73.823,278.458 73.782 C 278.619 73.740,278.487 73.705,278.167 73.705 C 277.846 73.705,277.715 73.740,277.875 73.782 M82.406 96.042 L 81.917 96.583 82.458 96.094 C 82.963 95.638,83.077 95.500,82.948 95.500 C 82.919 95.500,82.675 95.744,82.406 96.042 M78.627 104.285 C 78.834 104.324,79.134 104.323,79.294 104.281 C 79.453 104.239,79.283 104.207,78.917 104.209 C 78.550 104.211,78.420 104.245,78.627 104.285 M76.042 104.448 C 76.202 104.490,76.465 104.490,76.625 104.448 C 76.785 104.406,76.654 104.372,76.333 104.372 C 76.012 104.372,75.881 104.406,76.042 104.448 M95.549 107.457 C 96.264 107.489,97.389 107.488,98.049 107.457 C 98.710 107.425,98.125 107.400,96.750 107.400 C 95.375 107.400,94.835 107.426,95.549 107.457 M119.049 107.624 C 119.764 107.655,120.889 107.655,121.549 107.624 C 122.210 107.592,121.625 107.566,120.250 107.567 C 118.875 107.567,118.335 107.593,119.049 107.624 M142.549 107.791 C 143.264 107.822,144.389 107.822,145.049 107.790 C 145.710 107.759,145.125 107.733,143.750 107.733 C 142.375 107.734,141.835 107.759,142.549 107.791 M160.167 113.583 C 160.478 113.904,160.770 114.167,160.815 114.167 C 160.861 114.167,160.644 113.904,160.333 113.583 C 160.022 113.263,159.730 113.000,159.685 113.000 C 159.639 113.000,159.856 113.263,160.167 113.583 M78.792 126.951 C 78.998 126.991,79.335 126.991,79.542 126.951 C 79.748 126.911,79.579 126.879,79.167 126.879 C 78.754 126.879,78.585 126.911,78.792 126.951 M166.894 128.917 C 166.895 129.833,166.923 130.187,166.956 129.703 C 166.990 129.218,166.990 128.468,166.956 128.036 C 166.921 127.604,166.894 128.000,166.894 128.917 M45.278 139.778 C 45.217 139.839,45.168 139.970,45.169 140.069 C 45.171 140.177,45.225 140.166,45.304 140.042 C 45.409 139.877,53.955 139.825,86.760 139.792 L 128.083 139.749 86.736 139.708 C 63.995 139.685,45.339 139.717,45.278 139.778 M61.553 160.958 C 63.645 160.985,67.020 160.985,69.053 160.958 C 71.086 160.932,69.375 160.910,65.250 160.910 C 61.125 160.910,59.461 160.932,61.553 160.958 M109.053 160.958 C 110.777 160.985,113.552 160.985,115.219 160.958 C 116.886 160.931,115.475 160.909,112.083 160.909 C 108.692 160.909,107.328 160.931,109.053 160.958 M132.044 160.953 C 132.297 160.991,132.672 160.990,132.877 160.951 C 133.082 160.911,132.875 160.880,132.417 160.881 C 131.958 160.882,131.791 160.915,132.044 160.953 M360.500 168.417 C 361.091 169.012,361.611 169.500,361.657 169.500 C 361.703 169.500,361.257 169.012,360.667 168.417 C 360.076 167.821,359.555 167.333,359.510 167.333 C 359.464 167.333,359.909 167.821,360.500 168.417 M344.083 172.833 C 344.535 173.292,344.942 173.667,344.987 173.667 C 345.033 173.667,344.701 173.292,344.250 172.833 C 343.799 172.375,343.392 172.000,343.346 172.000 C 343.300 172.000,343.632 172.375,344.083 172.833 M39.944 175.278 C 39.883 175.339,39.834 175.470,39.836 175.569 C 39.837 175.680,39.889 175.670,39.968 175.546 C 40.060 175.401,40.939 175.327,43.007 175.292 L 45.917 175.242 42.986 175.204 C 41.374 175.184,40.006 175.217,39.944 175.278 M50.958 175.291 C 51.898 175.321,53.435 175.321,54.375 175.291 C 55.315 175.261,54.546 175.237,52.667 175.237 C 50.788 175.237,50.019 175.261,50.958 175.291 M73.917 175.280 C 76.344 175.400,78.963 175.406,78.891 175.292 C 78.849 175.223,77.487 175.181,75.865 175.199 C 74.243 175.216,73.367 175.253,73.917 175.280 M84.125 175.291 C 85.065 175.321,86.602 175.321,87.542 175.291 C 88.481 175.261,87.712 175.237,85.833 175.237 C 83.954 175.237,83.185 175.261,84.125 175.291 M107.083 175.280 C 109.512 175.400,112.167 175.406,112.167 175.292 C 112.167 175.223,110.798 175.181,109.125 175.199 C 107.452 175.216,106.533 175.253,107.083 175.280 M126.697 175.292 C 129.142 175.317,133.192 175.318,135.697 175.292 C 138.201 175.266,136.200 175.244,131.250 175.244 C 126.300 175.244,124.251 175.266,126.697 175.292 M147.884 175.291 C 148.874 175.321,150.449 175.321,151.384 175.291 C 152.319 175.261,151.508 175.237,149.583 175.237 C 147.658 175.237,146.894 175.262,147.884 175.291 M175.301 175.291 C 176.245 175.321,177.745 175.321,178.634 175.291 C 179.523 175.261,178.750 175.237,176.917 175.237 C 175.083 175.237,174.356 175.261,175.301 175.291 M187.032 175.291 C 188.013 175.320,189.663 175.320,190.699 175.291 C 191.735 175.262,190.933 175.238,188.917 175.238 C 186.900 175.238,186.052 175.262,187.032 175.291 M199.776 175.292 C 199.706 175.405,208.520 175.404,220.250 175.289 C 222.725 175.264,219.148 175.227,212.302 175.206 C 205.455 175.184,199.818 175.223,199.776 175.292 M228.583 175.280 C 231.011 175.400,233.629 175.406,233.558 175.292 C 233.515 175.223,232.154 175.181,230.532 175.199 C 228.910 175.216,228.033 175.253,228.583 175.280 M248.125 175.292 C 250.623 175.317,254.710 175.317,257.208 175.292 C 259.706 175.266,257.662 175.244,252.667 175.244 C 247.671 175.244,245.627 175.266,248.125 175.292 M273.292 175.291 C 274.231 175.321,275.769 175.321,276.708 175.291 C 277.648 175.261,276.879 175.237,275.000 175.237 C 273.121 175.237,272.352 175.261,273.292 175.291 M296.250 175.280 C 298.677 175.400,301.296 175.406,301.225 175.292 C 301.182 175.223,299.820 175.181,298.198 175.199 C 296.577 175.216,295.700 175.253,296.250 175.280 M116.324 178.292 L 115.750 178.917 116.375 178.342 C 116.957 177.808,117.077 177.667,116.949 177.667 C 116.922 177.667,116.640 177.948,116.324 178.292 M267.045 181.167 C 267.045 181.579,267.078 181.748,267.118 181.542 C 267.157 181.335,267.157 180.998,267.118 180.792 C 267.078 180.585,267.045 180.754,267.045 181.167 M125.958 180.792 C 128.273 180.818,132.060 180.818,134.375 180.792 C 136.690 180.765,134.796 180.744,130.167 180.744 C 125.537 180.744,123.644 180.765,125.958 180.792 M200.958 180.791 C 202.265 180.819,204.402 180.819,205.708 180.791 C 207.015 180.763,205.946 180.740,203.333 180.740 C 200.721 180.740,199.652 180.763,200.958 180.791 M213.942 180.792 C 213.900 180.860,215.301 180.897,217.057 180.874 C 223.015 180.795,223.597 180.737,218.802 180.702 C 216.171 180.682,213.985 180.723,213.942 180.792 M247.292 180.792 C 249.606 180.818,253.394 180.818,255.708 180.792 C 258.023 180.765,256.129 180.744,251.500 180.744 C 246.871 180.744,244.977 180.765,247.292 180.792 M233.214 193.750 C 233.216 194.208,233.248 194.376,233.286 194.123 C 233.325 193.869,233.324 193.494,233.284 193.289 C 233.244 193.084,233.213 193.292,233.214 193.750 M262.406 196.708 L 261.917 197.250 262.458 196.760 C 262.963 196.304,263.077 196.167,262.948 196.167 C 262.919 196.167,262.675 196.410,262.406 196.708 M73.833 199.472 C 73.833 199.613,72.837 199.677,70.208 199.705 L 66.583 199.743 70.155 199.792 C 73.483 199.837,74.306 199.750,73.947 199.392 C 73.885 199.329,73.833 199.365,73.833 199.472 M107.000 199.472 C 107.000 199.613,106.004 199.677,103.375 199.705 L 99.750 199.743 103.322 199.792 C 106.650 199.837,107.472 199.750,107.114 199.392 C 107.051 199.329,107.000 199.365,107.000 199.472 M36.375 199.791 C 37.177 199.821,38.490 199.821,39.292 199.791 C 40.094 199.760,39.438 199.735,37.833 199.735 C 36.229 199.735,35.573 199.760,36.375 199.791 M45.883 199.791 C 46.690 199.821,47.965 199.821,48.717 199.791 C 49.468 199.760,48.808 199.735,47.250 199.735 C 45.692 199.735,45.077 199.760,45.883 199.791 M79.042 199.791 C 79.844 199.821,81.156 199.821,81.958 199.791 C 82.760 199.760,82.104 199.735,80.500 199.735 C 78.896 199.735,78.240 199.760,79.042 199.791 M205.717 199.791 C 206.523 199.821,207.798 199.821,208.550 199.791 C 209.302 199.760,208.642 199.735,207.083 199.735 C 205.525 199.735,204.910 199.760,205.717 199.791 M224.217 199.791 C 225.023 199.821,226.298 199.821,227.050 199.791 C 227.802 199.760,227.142 199.735,225.583 199.735 C 224.025 199.735,223.410 199.760,224.217 199.791 M268.208 199.791 C 269.010 199.821,270.323 199.821,271.125 199.791 C 271.927 199.760,271.271 199.735,269.667 199.735 C 268.063 199.735,267.406 199.760,268.208 199.791 M290.708 199.791 C 291.694 199.821,293.306 199.821,294.292 199.791 C 295.277 199.762,294.471 199.737,292.500 199.737 C 290.529 199.737,289.723 199.762,290.708 199.791 M241.375 227.619 C 241.627 227.658,242.040 227.658,242.292 227.619 C 242.544 227.581,242.338 227.550,241.833 227.550 C 241.329 227.550,241.123 227.581,241.375 227.619 M259.708 227.619 C 259.960 227.658,260.373 227.658,260.625 227.619 C 260.877 227.581,260.671 227.550,260.167 227.550 C 259.662 227.550,259.456 227.581,259.708 227.619 M240.292 232.951 C 240.498 232.991,240.835 232.991,241.042 232.951 C 241.248 232.911,241.079 232.879,240.667 232.879 C 240.254 232.879,240.085 232.911,240.292 232.951 M244.375 233.115 C 244.535 233.157,244.798 233.157,244.958 233.115 C 245.119 233.073,244.987 233.039,244.667 233.039 C 244.346 233.039,244.215 233.073,244.375 233.115 M249.294 233.285 C 249.501 233.324,249.801 233.323,249.960 233.281 C 250.120 233.239,249.950 233.207,249.583 233.209 C 249.217 233.211,249.086 233.245,249.294 233.285 M277.542 233.282 C 277.702 233.323,277.965 233.323,278.125 233.282 C 278.285 233.240,278.154 233.205,277.833 233.205 C 277.512 233.205,277.381 233.240,277.542 233.282 M256.713 233.456 C 257.152 233.490,257.827 233.490,258.213 233.455 C 258.600 233.420,258.242 233.392,257.417 233.392 C 256.592 233.393,256.275 233.422,256.713 233.456 M269.375 233.455 C 269.719 233.491,270.281 233.491,270.625 233.455 C 270.969 233.419,270.688 233.389,270.000 233.389 C 269.313 233.389,269.031 233.419,269.375 233.455 " stroke="none" fill="#989898" fill-rule="evenodd"></path><path id="path4" d="M102.833 73.791 C 145.832 73.904,175.627 73.905,175.558 73.792 C 175.515 73.723,155.516 73.685,131.115 73.707 C 106.714 73.730,93.987 73.767,102.833 73.791 M210.625 73.792 C 222.931 73.815,243.069 73.815,255.375 73.792 C 267.681 73.768,257.612 73.749,233.000 73.749 C 208.387 73.749,198.319 73.768,210.625 73.792 M298.833 81.417 C 299.144 81.737,299.436 82.000,299.482 82.000 C 299.528 82.000,299.311 81.737,299.000 81.417 C 298.689 81.096,298.397 80.833,298.351 80.833 C 298.305 80.833,298.522 81.096,298.833 81.417 M58.906 85.208 L 58.417 85.750 58.958 85.260 C 59.463 84.804,59.577 84.667,59.448 84.667 C 59.419 84.667,59.175 84.910,58.906 85.208 M79.708 104.282 C 79.869 104.323,80.131 104.323,80.292 104.282 C 80.452 104.240,80.321 104.205,80.000 104.205 C 79.679 104.205,79.548 104.240,79.708 104.282 M77.042 104.448 C 77.202 104.490,77.465 104.490,77.625 104.448 C 77.785 104.406,77.654 104.372,77.333 104.372 C 77.012 104.372,76.881 104.406,77.042 104.448 M88.218 107.458 C 89.392 107.487,91.267 107.487,92.385 107.458 C 93.502 107.429,92.542 107.405,90.250 107.406 C 87.958 107.406,87.044 107.429,88.218 107.458 M110.792 107.625 C 112.098 107.653,114.235 107.653,115.542 107.625 C 116.848 107.596,115.779 107.573,113.167 107.573 C 110.554 107.573,109.485 107.596,110.792 107.625 M134.292 107.791 C 135.598 107.819,137.735 107.819,139.042 107.791 C 140.348 107.763,139.279 107.740,136.667 107.740 C 134.054 107.740,132.985 107.763,134.292 107.791 M76.375 126.782 C 76.535 126.823,76.798 126.823,76.958 126.782 C 77.119 126.740,76.987 126.705,76.667 126.705 C 76.346 126.705,76.215 126.740,76.375 126.782 M80.288 126.954 C 80.584 126.990,81.109 126.991,81.455 126.955 C 81.800 126.919,81.558 126.889,80.917 126.888 C 80.275 126.887,79.992 126.917,80.288 126.954 M96.875 126.958 C 103.452 126.982,114.215 126.982,120.792 126.958 C 127.369 126.934,121.987 126.914,108.833 126.914 C 95.679 126.914,90.298 126.934,96.875 126.958 M135.740 137.542 L 135.250 138.083 135.792 137.594 C 136.090 137.325,136.333 137.081,136.333 137.052 C 136.333 136.923,136.196 137.037,135.740 137.542 M128.958 139.954 C 129.256 139.991,129.744 139.991,130.042 139.954 C 130.340 139.917,130.096 139.887,129.500 139.887 C 128.904 139.887,128.660 139.917,128.958 139.954 M48.969 160.958 C 50.648 160.985,53.348 160.985,54.969 160.958 C 56.590 160.931,55.217 160.909,51.917 160.909 C 48.617 160.909,47.290 160.931,48.969 160.958 M121.553 160.958 C 123.461 160.985,126.536 160.985,128.386 160.958 C 130.236 160.931,128.675 160.909,124.917 160.909 C 121.158 160.909,119.645 160.931,121.553 160.958 M342.333 171.052 C 342.333 171.081,342.577 171.325,342.875 171.594 L 343.417 172.083 342.927 171.542 C 342.471 171.037,342.333 170.923,342.333 171.052 M345.000 173.719 C 345.000 173.748,345.244 173.991,345.542 174.260 L 346.083 174.750 345.594 174.208 C 345.138 173.703,345.000 173.590,345.000 173.719 M143.333 176.552 C 143.333 176.581,143.577 176.825,143.875 177.094 L 144.417 177.583 143.927 177.042 C 143.471 176.537,143.333 176.423,143.333 176.552 M373.889 193.333 C 373.889 194.021,373.919 194.302,373.955 193.958 C 373.991 193.615,373.991 193.052,373.955 192.708 C 373.919 192.365,373.889 192.646,373.889 193.333 M140.991 196.625 L 140.417 197.250 141.042 196.676 C 141.623 196.141,141.743 196.000,141.616 196.000 C 141.588 196.000,141.307 196.281,140.991 196.625 M226.627 227.118 C 226.834 227.158,227.134 227.156,227.294 227.115 C 227.453 227.073,227.283 227.040,226.917 227.042 C 226.550 227.044,226.420 227.078,226.627 227.118 M267.875 227.448 C 268.035 227.490,268.298 227.490,268.458 227.448 C 268.619 227.406,268.487 227.372,268.167 227.372 C 267.846 227.372,267.715 227.406,267.875 227.448 M239.129 227.622 C 239.521 227.657,240.121 227.657,240.463 227.621 C 240.804 227.585,240.483 227.557,239.750 227.557 C 239.017 227.558,238.737 227.587,239.129 227.622 M261.625 227.622 C 262.015 227.657,262.652 227.657,263.042 227.622 C 263.431 227.587,263.112 227.558,262.333 227.558 C 261.554 227.558,261.235 227.587,261.625 227.622 M250.375 233.282 C 250.535 233.323,250.798 233.323,250.958 233.282 C 251.119 233.240,250.987 233.205,250.667 233.205 C 250.346 233.205,250.215 233.240,250.375 233.282 M276.211 233.286 C 276.464 233.325,276.839 233.324,277.044 233.284 C 277.249 233.244,277.042 233.213,276.583 233.214 C 276.125 233.216,275.957 233.248,276.211 233.286 M261.292 233.458 C 262.690 233.486,264.977 233.486,266.375 233.458 C 267.773 233.430,266.629 233.407,263.833 233.407 C 261.037 233.407,259.894 233.430,261.292 233.458 " stroke="none" fill="#967c7c" fill-rule="evenodd"></path></g></svg>